<svg xmlns="http://www.w3.org/2000/svg" data-name="Layer 1" viewBox="0 0 53 53" id="announcement"><path d="M7.47 44.6a1 1 0 0 0 1 .84h3.36a1 1 0 0 0 .76-.36 1 1 0 0 0 .23-.8l-2.09-12.72H11.95c15.2 1.39 21.82 10.3 21.88 10.38a1 1 0 0 0 .82.42.79.79 0 0 0 .3-.05 1 1 0 0 0 .7-.95V30.21h2.09a1 1 0 0 0 1-1V22a1 1 0 0 0-1-1h-2.09V9.91A1 1 0 0 0 35 9a1 1 0 0 0-1.12.35c-.07.1-7.33 9.6-22.06 10.43h-6.2a3.12 3.12 0 0 0-3.12 3.08v5.58a3.11 3.11 0 0 0 2.84 3.09zm3.18-1.16H9.31L7.37 31.56h1.34zM36.74 23v5.17h-1.09V23zm-3.09-10.49v26.21c-2.94-2.88-9.56-7.91-20.83-9.11v-7.94a33.34 33.34 0 0 0 20.83-9.16zM4.5 28.44v-5.58a1.12 1.12 0 0 1 1.12-1.12h5.2v7.82h-5.2a1.12 1.12 0 0 1-1.12-1.12zm37.1-8.86a1 1 0 0 0 .91.58 1.06 1.06 0 0 0 .42-.09L49 17.33a1 1 0 0 0 .5-1.33 1 1 0 0 0-1.32-.49l-6.08 2.74a1 1 0 0 0-.5 1.33zM44 7.89l-4.5 4.91a1 1 0 0 0 .73 1.68 1 1 0 0 0 .74-.32l4.5-4.92A1 1 0 0 0 44 7.89zm5 24.51-6.07-2.75a1 1 0 1 0-.83 1.82l6.08 2.75a1 1 0 0 0 .41.09A1 1 0 0 0 49 32.4zm-9.47 4.52L44 41.84a1 1 0 0 0 .74.32 1 1 0 0 0 .67-.26 1 1 0 0 0 .06-1.41L41 35.57a1 1 0 1 0-1.47 1.35zm9.97-13.06h-6.32a1 1 0 1 0 0 2h6.32a1 1 0 0 0 0-2z"></path></svg>