<?xml version="1.0" encoding="iso-8859-1"?>
<!-- Uploaded to: SVG Repo, www.svgrepo.com, Generator: SVG Repo Mixer Tools -->
<svg fill="#000000" height="800px" width="800px" version="1.1" id="Layer_1" xmlns="http://www.w3.org/2000/svg" xmlns:xlink="http://www.w3.org/1999/xlink" 
	 viewBox="0 0 511.999 511.999" xml:space="preserve">
<g>
	<g>
		<path d="M340.54,36.316H17.86C7.997,36.316,0,44.312,0,54.176v403.646c0,9.864,7.997,17.86,17.86,17.86H340.54
			c9.864,0,17.86-7.997,17.86-17.86V54.176C358.4,44.312,350.403,36.316,340.54,36.316z M322.679,439.962H35.721V72.037h286.958
			V439.962z"/>
	</g>
</g>
<g>
	<g>
		<path d="M226.233,145.86h-92.405c-9.168,0-17.212,6.717-18.218,15.829c-1.188,10.773,7.216,19.892,17.749,19.892h92.405
			c9.168,0,17.212-6.717,18.218-15.829C245.169,154.978,236.767,145.86,226.233,145.86z"/>
	</g>
</g>
<g>
	<g>
		<path d="M266.716,238.734H93.344c-9.168,0-17.212,6.717-18.218,15.829c-1.188,10.773,7.216,19.892,17.749,19.892h173.373
			c9.168,0,17.212-6.717,18.218-15.829C285.653,247.853,277.25,238.734,266.716,238.734z"/>
	</g>
</g>
<g>
	<g>
		<path d="M266.716,331.609H93.344c-9.168,0-17.212,6.717-18.218,15.829c-1.188,10.773,7.216,19.892,17.749,19.892h173.373
			c9.168,0,17.212-6.717,18.218-15.829C285.653,340.727,277.25,331.609,266.716,331.609z"/>
	</g>
</g>
<g>
	<g>
		<path d="M494.14,36.316h-75.014c-9.864,0-17.86,7.997-17.86,17.86v302.437c0,3.455,0.998,6.671,2.697,9.405l36.277,88.924
			c6.029,14.777,27.038,14.793,33.074,0l37.259-91.329c0.932-2.178,1.426-4.676,1.426-7V54.176
			C512,44.312,504.003,36.316,494.14,36.316z M456.777,400.913l-10.786-26.439h21.573L456.777,400.913z M476.279,338.753h-39.293
			v-204.8h39.293V338.753z M476.279,98.232h-39.293V72.037h39.293V98.232z"/>
	</g>
</g>
</svg>